<svg width="23" height="17" viewBox="0 0 23 17" fill="none" xmlns="http://www.w3.org/2000/svg">
<mask id="path-1-inside-1" fill="white">
<path d="M7.40625 13.6664L20.6991 0.37346C21.0897 -0.0170647 21.7228 -0.0170647 22.1134 0.37346C22.5039 0.763984 22.5039 1.39715 22.1134 1.78767L8.11336 15.7877C7.72283 16.1782 7.08967 16.1782 6.69914 15.7877L0.699143 9.78768C0.308619 9.39715 0.308619 8.76399 0.699143 8.37346C1.08967 7.98294 1.72283 7.98294 2.11336 8.37346L7.40625 13.6664Z"/>
</mask>
<path d="M7.40625 13.6664L20.6991 0.37346C21.0897 -0.0170647 21.7228 -0.0170647 22.1134 0.37346C22.5039 0.763984 22.5039 1.39715 22.1134 1.78767L8.11336 15.7877C7.72283 16.1782 7.08967 16.1782 6.69914 15.7877L0.699143 9.78768C0.308619 9.39715 0.308619 8.76399 0.699143 8.37346C1.08967 7.98294 1.72283 7.98294 2.11336 8.37346L7.40625 13.6664Z" fill="white"/>
<path d="M7.40625 13.6664L5.28493 15.7877L7.40625 17.909L9.52757 15.7877L7.40625 13.6664ZM20.6991 0.37346L18.5778 -1.74786L18.5778 -1.74786L20.6991 0.37346ZM22.1134 0.37346L24.2347 -1.74786V-1.74786L22.1134 0.37346ZM22.1134 1.78767L24.2347 3.909V3.90899L22.1134 1.78767ZM8.11336 15.7877L10.2347 17.909L10.2347 17.909L8.11336 15.7877ZM6.69914 15.7877L4.57782 17.909L4.57782 17.909L6.69914 15.7877ZM0.699143 9.78768L-1.42218 11.909H-1.42218L0.699143 9.78768ZM0.699143 8.37346L-1.42218 6.25214L-1.42218 6.25214L0.699143 8.37346ZM2.11336 8.37346L4.23468 6.25214L4.23468 6.25214L2.11336 8.37346ZM9.52757 15.7877L22.8205 2.49478L18.5778 -1.74786L5.28493 11.545L9.52757 15.7877ZM22.8205 2.49478C22.0394 3.27583 20.7731 3.27583 19.992 2.49478L24.2347 -1.74786C22.6726 -3.30996 20.1399 -3.30996 18.5778 -1.74786L22.8205 2.49478ZM19.992 2.49478C19.211 1.71373 19.211 0.447403 19.992 -0.333645L24.2347 3.90899C25.7968 2.3469 25.7968 -0.185763 24.2347 -1.74786L19.992 2.49478ZM19.992 -0.333645L5.99204 13.6664L10.2347 17.909L24.2347 3.909L19.992 -0.333645ZM5.99204 13.6664C6.77309 12.8853 8.03941 12.8853 8.82046 13.6664L4.57782 17.909C6.13992 19.4711 8.67258 19.4711 10.2347 17.909L5.99204 13.6664ZM8.82046 13.6664L2.82046 7.66636L-1.42218 11.909L4.57782 17.909L8.82046 13.6664ZM2.82046 7.66636C3.60151 8.4474 3.60151 9.71373 2.82046 10.4948L-1.42218 6.25214C-2.98427 7.81424 -2.98427 10.3469 -1.42218 11.909L2.82046 7.66636ZM2.82046 10.4948C2.03941 11.2758 0.773085 11.2758 -0.00796354 10.4948L4.23468 6.25214C2.67258 4.69004 0.13992 4.69004 -1.42218 6.25214L2.82046 10.4948ZM-0.00796393 10.4948L5.28493 15.7877L9.52757 11.545L4.23468 6.25214L-0.00796393 10.4948Z" fill="white" mask="url(#path-1-inside-1)"/>
</svg>
